<svg height="512" viewBox="0 0 74 74" width="512" xmlns="http://www.w3.org/2000/svg"><path d="M55.433 72.005a29.212 29.212 0 0 1-10.049-2.079c-8.05-3.008-16.773-8.956-24.563-16.747S7.082 36.666 4.074 28.616C.969 20.31 1.352 13.643 5.152 9.843l7.2-7.2a2.2 2.2 0 0 1 3.107 0L29.01 16.195a2.2 2.2 0 0 1 0 3.108l-5.505 5.5c-1.334 1.334-1.394 3.989-.163 7.283a32.567 32.567 0 0 0 7.537 11.032 32.567 32.567 0 0 0 11.031 7.541c3.294 1.23 5.948 1.171 7.283-.163l5.5-5.505a2.251 2.251 0 0 1 3.108 0l13.555 13.551a2.2 2.2 0 0 1 0 3.107l-7.2 7.2c-2.099 2.1-5.077 3.156-8.723 3.156zM13.9 4a.2.2 0 0 0-.141.058l-7.2 7.2c-6.849 6.849.18 25.021 15.668 40.509S55.9 74.282 62.743 67.434l7.2-7.2a.2.2 0 0 0 0-.28L56.391 46.4a.2.2 0 0 0-.28 0l-5.5 5.505c-1.94 1.941-5.277 2.162-9.4.623a34.577 34.577 0 0 1-11.746-8 34.577 34.577 0 0 1-8-11.746c-1.539-4.119-1.318-7.457.623-9.4l5.505-5.5a.2.2 0 0 0 0-.28L14.044 4.058A.2.2 0 0 0 13.9 4z"/><path d="M22.8 25.1a1 1 0 0 1-.707-.293L6.846 9.563A1 1 0 0 1 8.26 8.149L23.5 23.394a1 1 0 0 1-.7 1.706zm42.344 42.347a1 1 0 0 1-.707-.293L49.192 51.91a1 1 0 0 1 1.414-1.41l15.245 15.24a1 1 0 0 1-.707 1.707zM70.5 35.5a1 1 0 0 1-1-1 30.034 30.034 0 0 0-30-30 1 1 0 0 1 0-2 32.036 32.036 0 0 1 32 32 1 1 0 0 1-1 1z"/><path d="M60.961 35.5a1 1 0 0 1-1-1A20.485 20.485 0 0 0 39.5 14.039a1 1 0 0 1 0-2A22.487 22.487 0 0 1 61.961 34.5a1 1 0 0 1-1 1z"/><path d="M51.423 35.5a1 1 0 0 1-1-1A10.935 10.935 0 0 0 39.5 23.577a1 1 0 0 1 0-2A12.938 12.938 0 0 1 52.423 34.5a1 1 0 0 1-1 1z"/></svg>