<svg height="512pt" viewBox="0 0 512 512.0019" width="512pt" xmlns="http://www.w3.org/2000/svg"><path d="M458.04 473.445a7.58 7.58 0 0 0 5.847-2.738A7.602 7.602 0 0 0 462.91 460L341.676 359.062a7.602 7.602 0 0 0-10.707.977 7.606 7.606 0 0 0 .976 10.711L453.18 471.688a7.565 7.565 0 0 0 4.86 1.757zM170.273 359.063L49.04 460a7.602 7.602 0 0 0-.977 10.707 7.569 7.569 0 0 0 5.848 2.738 7.565 7.565 0 0 0 4.86-1.757l121.234-100.942a7.601 7.601 0 0 0 .976-10.707 7.601 7.601 0 0 0-10.707-.977zm0 0"/><path d="M511.945 187.367a7.607 7.607 0 0 0-2.738-5.844l-53.535-44.574V88.152c0-34.601-28.149-62.75-62.75-62.75h-71.23l-3.422-2.851c-36.094-30.067-88.497-30.067-124.602 0l-3.422 2.851h-15.371a7.6 7.6 0 0 0-7.602 7.602c0 4.2 3.403 7.605 7.602 7.605h218.047c26.215 0 47.543 21.328 47.543 47.543V230.66l-131.93 109.844c-30.453 25.371-74.668 25.367-105.137-.004L71.484 230.66V88.153c0-26.215 21.332-47.544 47.555-47.544h25.422a7.604 7.604 0 0 0 0-15.207h-25.422c-34.605 0-62.762 28.149-62.762 62.75v48.797L2.742 181.527a7.59 7.59 0 0 0-2.734 5.782c0 .023-.008.039-.008.062v269.34C0 487.199 24.805 512 55.293 512h340.578a7.6 7.6 0 0 0 7.602-7.602 7.6 7.6 0 0 0-7.602-7.601H55.293c-22.106 0-40.086-17.985-40.086-40.086V203.59l43.832 36.5c.004 0 .004 0 .004.004l134.625 112.094c18.059 15.035 40.176 22.55 62.305 22.546 22.12 0 44.25-7.515 62.293-22.546l134.609-112.075c.023-.02.043-.035.063-.054l43.796-36.465v253.113c0 22.102-17.98 40.086-40.086 40.086h-30.363c-4.2 0-7.601 3.402-7.601 7.602s3.402 7.605 7.601 7.605h30.363c30.489 0 55.293-24.805 55.293-55.293V187.43c0-.02.004-.04.004-.063zM295.585 25.402H216.36c24.621-13.574 54.61-13.574 79.227 0zM56.278 156.738V218l-36.789-30.629zm399.395 61.258v-61.258l36.789 30.63zm0 0"/><path d="M367.484 210.625h-223.02a7.604 7.604 0 1 0 0 15.207h223.02a7.604 7.604 0 0 0 0-15.207zm0 44.156h-223.02a7.603 7.603 0 1 0 0 15.207h223.02a7.604 7.604 0 1 0 0-15.207zm0-132.472h-223.02a7.607 7.607 0 0 0-7.605 7.605 7.606 7.606 0 0 0 7.606 7.602h223.02a7.606 7.606 0 0 0 7.605-7.602c0-4.2-3.406-7.605-7.606-7.605zm0 44.16H311.73a7.6 7.6 0 0 0-7.601 7.601 7.6 7.6 0 0 0 7.601 7.602h55.754a7.6 7.6 0 0 0 7.602-7.602 7.6 7.6 0 0 0-7.602-7.601zm-223.019 15.203h141.922a7.6 7.6 0 0 0 7.601-7.602 7.6 7.6 0 0 0-7.601-7.601H144.465a7.604 7.604 0 0 0-7.606 7.601c0 4.2 3.407 7.602 7.606 7.602zm0 0"/></svg>