<svg xmlns="http://www.w3.org/2000/svg" viewBox="0 0 220.39 277.78"><g data-name="Capa 2"><g data-name="Capa 46"><path d="M220.39 112.4a109.21 109.21 0 0 1-169.83 90.83L202 51.77a108.59 108.59 0 0 1 18.39 60.63z" fill="#c3c8cd"/><path d="M193.43 57.94L42 209.4a109.77 109.77 0 0 1-36.68-41.15l147-147a109.77 109.77 0 0 1 41.11 36.69z" fill="#b3b6b7"/><path d="M158.88 11.92l-147 147a109.26 109.26 0 0 1 147-147z" fill="#c3c8cd"/><path fill="#0472ae" d="M29.2 62.65h21.58v131.29H29.2z"/><path fill="#14598c" d="M75.13 163.1l.04-104.02-45.98-.01.01-22.29 78.34.04-.01 22.29-10.78-.02-.04 104.02-21.58-.01z"/><path d="M100.37 198l-4.64-.56c-11.14-1.43-18.25-8.62-20.55-20.82l-.05-.26v-9.69h21.58v4.66l.2 2.17a3.54 3.54 0 0 0 1.72 1.75l2.14.46h60.76l2.15-.46a3.59 3.59 0 0 0 1.72-1.74l.2-2.17v-53.26l-.2-1.88a5.13 5.13 0 0 0-2-2.09l-2.07-.43H132l-.28-.06a24.86 24.86 0 0 1-13.28-7.36 26.35 26.35 0 0 1-7-13.71V58.13a27.37 27.37 0 0 1 7.19-13.65 22 22 0 0 1 13.46-7.13l4.67-.57h25.08l4.66.56a22 22 0 0 1 13.5 7.09A26.9 26.9 0 0 1 187.16 58l.05.27V70h-21.58v-6.79l-.2-1.88a3.61 3.61 0 0 0-1.79-1.82l-2.06-.43H137l-2.15.44a3.44 3.44 0 0 0-1.7 1.85l-.2 1.83v24.06l.2 1.89A3.57 3.57 0 0 0 135 91l2 .42h25.45l4.14.57A21.86 21.86 0 0 1 180 99.11a27.39 27.39 0 0 1 7.16 13.66l.05.27v63.37l-.06.29c-2.54 12.34-9.45 19.32-20.54 20.75l-4.66.57z" fill="#0472ae"/><path d="M23.32 259l-1.11-.13q-3.71-.45-4.48-4.39v-2.25h3.93v1.16l.07.67a1.58 1.58 0 0 0 .91.87l.66.14h7.89l.66-.14a1.58 1.58 0 0 0 .91-.87l.07-.67v-5.1l-.07-.6a2 2 0 0 0-.94-.94l-.67-.14H22.2a5.54 5.54 0 0 1-2.92-1.54 5.46 5.46 0 0 1-1.55-2.91v-7.22a5.71 5.71 0 0 1 1.6-2.91 4.79 4.79 0 0 1 2.9-1.48l1.11-.13h7.81l1.11.13a4.83 4.83 0 0 1 2.9 1.47 5.63 5.63 0 0 1 1.6 2.87v2.05h-3.93v-1l-.07-.58a1.6 1.6 0 0 0-.91-.91l-.66-.12H23.3l-.66.12a1.56 1.56 0 0 0-.91.91l-.07.58v5.1l.07.58a1.55 1.55 0 0 0 .91.9l.65.13h8l1 .13a4.79 4.79 0 0 1 2.9 1.48 5.77 5.77 0 0 1 1.59 2.9v7.29c-.56 2.63-2.06 4.09-4.48 4.39l-1.1.13zm22.14-.13a4.82 4.82 0 0 1-2.91-1.48 5.68 5.68 0 0 1-1.6-2.9v-19.56a5.68 5.68 0 0 1 1.6-2.9 4.82 4.82 0 0 1 2.91-1.48l1.11-.13h7.8l1.11.13a4.82 4.82 0 0 1 2.91 1.45 5.68 5.68 0 0 1 1.6 2.9v19.56a5.68 5.68 0 0 1-1.6 2.9 4.82 4.82 0 0 1-2.91 1.48l-1.11.13h-7.8zm9-3.8l.65-.14a1.64 1.64 0 0 0 .92-.87l.06-.67V236l-.06-.58a1.62 1.62 0 0 0-.92-.91l-.65-.12h-7.9l-.65.12a1.87 1.87 0 0 0-.91.91l-.07.58v17.42l.07.67a1.55 1.55 0 0 0 .91.87l.65.14zm10.3 3.93v-28.58h3.94v24.65h15.09V259zm26.03-.06a5.56 5.56 0 0 1-2.92-1.55 5.41 5.41 0 0 1-1.56-2.9v-24.07h3.93v23l.07.67a1.62 1.62 0 0 0 .91.87l.66.14h7.89l.66-.14a1.62 1.62 0 0 0 .91-.87l.07-.67v-23h3.93v24.07a5.48 5.48 0 0 1-1.56 2.9 5.56 5.56 0 0 1-2.92 1.55l-1.1.06zm27 .06v-24.64h-7.55v-3.94h19v3.94h-7.55V259zm19.36-28.58V259h-3.94v-28.58zm9.6 28.45a4.82 4.82 0 0 1-2.91-1.48 5.68 5.68 0 0 1-1.6-2.9v-19.56a5.68 5.68 0 0 1 1.6-2.9 4.82 4.82 0 0 1 2.91-1.48l1.11-.13h7.8l1.11.13a4.82 4.82 0 0 1 2.91 1.48 5.75 5.75 0 0 1 1.6 2.9v19.56a5.75 5.75 0 0 1-1.6 2.9 4.82 4.82 0 0 1-2.91 1.48l-1.11.13h-7.8zm9-3.8l.65-.14a1.59 1.59 0 0 0 .91-.87l.07-.67V236l-.07-.58a1.57 1.57 0 0 0-.91-.91l-.65-.12h-7.9l-.65.12a1.93 1.93 0 0 0-.92.91l-.06.58v17.42l.06.67a1.59 1.59 0 0 0 .92.87l.65.14zm25.36 3.93L170 238.63V259h-3.93v-28.58H170l11.1 20.32v-20.32h3.9V259zm14.59 0l-1.1-.13q-3.71-.45-4.49-4.39v-2.25h3.94v1.16l.06.67a1.59 1.59 0 0 0 .92.87l.65.14h7.9l.65-.14a1.55 1.55 0 0 0 .91-.87l.07-.67v-5.1l-.07-.6a1.87 1.87 0 0 0-.94-.94l-.67-.14h-8.94a5.65 5.65 0 0 1-4.48-4.45v-7.22a5.71 5.71 0 0 1 1.6-2.91 4.82 4.82 0 0 1 2.91-1.48l1.11-.13h7.8l1.11.13a4.86 4.86 0 0 1 2.91 1.47 5.71 5.71 0 0 1 1.6 2.87v2.05h-3.94v-1l-.07-.58a1.57 1.57 0 0 0-.91-.91l-.65-.12h-7.9l-.65.12a1.58 1.58 0 0 0-.92.91l-.06.58v5.1l.06.58a1.58 1.58 0 0 0 .91.9l.66.13h8l1 .13a4.77 4.77 0 0 1 2.89 1.48 5.72 5.72 0 0 1 1.6 2.9v7.29c-.57 2.63-2.06 4.09-4.49 4.39l-1.1.13z" fill="#223a59"/><path d="M39.66 275.8h-1.31v-9.95h1.31zm3.4-7.4v.93a2.68 2.68 0 0 1 2.21-1.06c1.57 0 2.35.88 2.37 2.64v4.89h-1.23v-4.89a1.69 1.69 0 0 0-.36-1.19 1.49 1.49 0 0 0-1.12-.38 1.82 1.82 0 0 0-1.08.33 2.16 2.16 0 0 0-.72.86v5.27h-1.27v-7.4zm7.72 0v.93a2.71 2.71 0 0 1 2.22-1.06c1.56 0 2.35.88 2.36 2.64v4.89h-1.22v-4.89a1.74 1.74 0 0 0-.37-1.19 1.49 1.49 0 0 0-1.12-.38 1.84 1.84 0 0 0-1.08.33 2.16 2.16 0 0 0-.72.86v5.27h-1.26v-7.4zM57 272a4.43 4.43 0 0 1 .43-1.95 3.33 3.33 0 0 1 5.38-.77 4.05 4.05 0 0 1 .93 2.79v.08a4.49 4.49 0 0 1-.41 1.94 3.16 3.16 0 0 1-1.19 1.34 3.25 3.25 0 0 1-1.76.48 3.1 3.1 0 0 1-2.44-1.05 4 4 0 0 1-.94-2.77zm1.28.15a3.19 3.19 0 0 0 .57 2 1.94 1.94 0 0 0 3.06 0 3.52 3.52 0 0 0 .56-2.12 3.2 3.2 0 0 0-.57-2 1.85 1.85 0 0 0-1.54-.75 1.83 1.83 0 0 0-1.51.74 3.46 3.46 0 0 0-.6 2.16zm9.35 1.93l1.83-5.68h1.3l-2.66 7.4h-1l-2.68-7.4h1.29zm8.81 1.72a2.55 2.55 0 0 1-.18-.78 2.83 2.83 0 0 1-2.11.92 2.62 2.62 0 0 1-1.79-.62 2 2 0 0 1-.7-1.57 2.07 2.07 0 0 1 .88-1.79 4.1 4.1 0 0 1 2.47-.64h1.23v-.58a1.39 1.39 0 0 0-.4-1.06 1.59 1.59 0 0 0-1.17-.39 1.81 1.81 0 0 0-1.13.34 1 1 0 0 0-.46.82h-1.27a1.74 1.74 0 0 1 .39-1.06 2.62 2.62 0 0 1 1.07-.82 3.59 3.59 0 0 1 1.48-.3 2.9 2.9 0 0 1 2 .64 2.31 2.31 0 0 1 .75 1.76v3.4a4.21 4.21 0 0 0 .26 1.62v.11zm-2.1-1a2.32 2.32 0 0 0 1.13-.31 1.91 1.91 0 0 0 .77-.8v-1.52h-1c-1.55 0-2.33.46-2.33 1.36a1.16 1.16 0 0 0 .4.93 1.48 1.48 0 0 0 1.03.38zm6.86-8.19v1.79h1.38v1H81.2v4.6a1 1 0 0 0 .19.67.76.76 0 0 0 .63.22 2.74 2.74 0 0 0 .6-.08v1a3.79 3.79 0 0 1-1 .14 1.54 1.54 0 0 1-1.28-.52 2.16 2.16 0 0 1-.43-1.45v-4.59h-1.32v-1h1.35v-1.79zm2.87-.17a.78.78 0 0 1 .18-.52.85.85 0 0 1 1.12 0 .74.74 0 0 1 .19.52.69.69 0 0 1-.19.51.74.74 0 0 1-1.3-.51zm1.36 9.36h-1.26v-7.4h1.26zm1.69-3.8a4.3 4.3 0 0 1 .43-1.95 3.11 3.11 0 0 1 1.19-1.34 3.2 3.2 0 0 1 1.74-.47 3.14 3.14 0 0 1 2.44 1 4.05 4.05 0 0 1 .93 2.79v.08a4.35 4.35 0 0 1-.41 1.94 3.14 3.14 0 0 1-1.18 1.34 3.26 3.26 0 0 1-1.77.48 3.09 3.09 0 0 1-2.43-1.05 4 4 0 0 1-.94-2.77zm1.27.15a3.19 3.19 0 0 0 .57 2 1.94 1.94 0 0 0 3.06 0 3.45 3.45 0 0 0 .57-2.12 3.14 3.14 0 0 0-.58-2 1.92 1.92 0 0 0-3 0 3.4 3.4 0 0 0-.62 2.15zm8.25-3.75v.93a2.68 2.68 0 0 1 2.21-1.06c1.57 0 2.35.88 2.37 2.64v4.89H100v-4.89a1.69 1.69 0 0 0-.36-1.19 1.49 1.49 0 0 0-1.12-.38 1.82 1.82 0 0 0-1.08.33 2.16 2.16 0 0 0-.72.86v5.27h-1.28v-7.4zm6.48 9.38l-.71-.49a3.38 3.38 0 0 0 .67-1.84v-1.15h1.23v1a3.06 3.06 0 0 1-.34 1.39 3 3 0 0 1-.85 1.09zm13.06-10.86H113v8.88h-1.3v-8.88h-3.2v-1.07h7.7zm4.34 2.62a4 4 0 0 0-.62-.05 1.67 1.67 0 0 0-1.69 1.06v5.25H117v-7.4h1.23v.86a2 2 0 0 1 1.76-1 1.36 1.36 0 0 1 .56.09zm5.73 5.53a2.68 2.68 0 0 1-2.17.87 2.3 2.3 0 0 1-1.8-.69 3 3 0 0 1-.62-2v-4.85h1.26v4.78c0 1.12.46 1.68 1.37 1.68a1.9 1.9 0 0 0 1.93-1.08v-5.38h1.26v7.4h-1.2zm7.46-1.23a.94.94 0 0 0-.39-.8 3.73 3.73 0 0 0-1.35-.49 6.31 6.31 0 0 1-1.52-.49 2.14 2.14 0 0 1-.83-.68 1.66 1.66 0 0 1-.27-.95 1.89 1.89 0 0 1 .77-1.53 3 3 0 0 1 2-.63 3 3 0 0 1 2 .65 2.05 2.05 0 0 1 .78 1.66h-1.27a1.13 1.13 0 0 0-.44-.9 1.64 1.64 0 0 0-1.11-.37 1.73 1.73 0 0 0-1.08.3.94.94 0 0 0-.39.78.76.76 0 0 0 .36.69 4.36 4.36 0 0 0 1.31.45 7.14 7.14 0 0 1 1.54.5 2.35 2.35 0 0 1 .87.71 1.74 1.74 0 0 1 .28 1 1.89 1.89 0 0 1-.79 1.59 3.32 3.32 0 0 1-2.06.6 3.73 3.73 0 0 1-1.57-.32 2.52 2.52 0 0 1-1.07-.88 2.08 2.08 0 0 1-.39-1.22h1.27a1.29 1.29 0 0 0 .51 1 1.94 1.94 0 0 0 1.25.37 2 2 0 0 0 1.15-.29.89.89 0 0 0 .44-.75zm4.63-7.23v1.79h1.38v1h-1.38v4.6a1.05 1.05 0 0 0 .18.67.76.76 0 0 0 .63.22 2.6 2.6 0 0 0 .6-.08v1a3.67 3.67 0 0 1-1 .14 1.57 1.57 0 0 1-1.28-.52 2.22 2.22 0 0 1-.43-1.45v-4.59h-1.35v-1h1.35v-1.79zm6.05 6.52a2.38 2.38 0 0 1 .4-1.32 6.17 6.17 0 0 1 1.53-1.4 6.7 6.7 0 0 1-.89-1.3 2.55 2.55 0 0 1 .45-2.76 2.53 2.53 0 0 1 1.81-.64 2.45 2.45 0 0 1 1.7.6 1.93 1.93 0 0 1 .67 1.51 2.15 2.15 0 0 1-.3 1.11 4.13 4.13 0 0 1-1.07 1.07l-.73.54 2.22 2.64a4.18 4.18 0 0 0 .46-2h1.14a4.78 4.78 0 0 1-.84 2.89l1.42 1.7h-1.51l-.67-.79a3.31 3.31 0 0 1-1.18.69 4.19 4.19 0 0 1-1.39.24 3.41 3.41 0 0 1-2.34-.78 2.58 2.58 0 0 1-.88-2zm3.22 1.77a2.67 2.67 0 0 0 1.84-.76l-2.45-2.91-.22.17a2.28 2.28 0 0 0-1.14 1.73 1.66 1.66 0 0 0 .52 1.29 2 2 0 0 0 1.45.48zm-1.14-6.81a2.87 2.87 0 0 0 .81 1.64l.8-.57a2.11 2.11 0 0 0 .64-.62 1.47 1.47 0 0 0 .17-.72 1 1 0 0 0-.34-.77 1.27 1.27 0 0 0-.86-.3 1.12 1.12 0 0 0-.89.38 1.4 1.4 0 0 0-.33.96zm13.53 3.27a6.11 6.11 0 0 1-2.46-1.19 2.28 2.28 0 0 1-.77-1.75 2.42 2.42 0 0 1 .94-1.94 3.76 3.76 0 0 1 2.45-.77 4 4 0 0 1 1.82.4 3 3 0 0 1 1.25 1.09 2.84 2.84 0 0 1 .44 1.53h-1.32a1.84 1.84 0 0 0-.57-1.43 2.39 2.39 0 0 0-1.62-.52 2.43 2.43 0 0 0-1.52.43 1.44 1.44 0 0 0-.54 1.19 1.28 1.28 0 0 0 .51 1 5.07 5.07 0 0 0 1.76.77 7.86 7.86 0 0 1 1.94.77 2.91 2.91 0 0 1 1 1 2.5 2.5 0 0 1 .34 1.32 2.33 2.33 0 0 1-.94 1.94 4 4 0 0 1-2.53.73 4.54 4.54 0 0 1-1.91-.4 3.24 3.24 0 0 1-1.37-1.07 2.66 2.66 0 0 1-.48-1.55h1.32a1.71 1.71 0 0 0 .66 1.42 2.81 2.81 0 0 0 1.78.52 2.61 2.61 0 0 0 1.6-.42 1.5 1.5 0 0 0 0-2.29 6 6 0 0 0-1.78-.78zm6.32-2.96v.82a2.74 2.74 0 0 1 2.19-1 2.09 2.09 0 0 1 2.11 1.19 2.74 2.74 0 0 1 1-.86 2.84 2.84 0 0 1 1.4-.33c1.62 0 2.45.86 2.48 2.57v5h-1.27v-4.88a1.73 1.73 0 0 0-.36-1.19 1.61 1.61 0 0 0-1.22-.39 1.68 1.68 0 0 0-1.17.42 1.71 1.71 0 0 0-.54 1.13v4.91h-1.27V271a1.41 1.41 0 0 0-1.58-1.61 1.69 1.69 0 0 0-1.7 1.06v5.4h-1.26v-7.4zm15.68 7.4a2.89 2.89 0 0 1-.18-.78 2.83 2.83 0 0 1-2.1.92 2.64 2.64 0 0 1-1.8-.62 2 2 0 0 1-.7-1.57 2.07 2.07 0 0 1 .88-1.79 4.12 4.12 0 0 1 2.47-.64h1.23v-.58a1.43 1.43 0 0 0-.39-1.06 1.62 1.62 0 0 0-1.17-.39 1.86 1.86 0 0 0-1.14.34 1 1 0 0 0-.46.82h-1.27a1.74 1.74 0 0 1 .39-1.06 2.69 2.69 0 0 1 1.07-.82 3.59 3.59 0 0 1 1.48-.3 2.9 2.9 0 0 1 2 .64 2.28 2.28 0 0 1 .76 1.76v3.4a4 4 0 0 0 .26 1.62v.11zm-2.1-1a2.29 2.29 0 0 0 1.13-.31 1.91 1.91 0 0 0 .77-.8v-1.52h-1c-1.55 0-2.32.46-2.32 1.36a1.15 1.15 0 0 0 .39.93 1.51 1.51 0 0 0 1 .38zm8.69-5.26a3.89 3.89 0 0 0-.62-.05 1.67 1.67 0 0 0-1.69 1.06v5.25H185v-7.4h1.23v.86a2 2 0 0 1 1.76-1 1.33 1.33 0 0 1 .56.09zm3.22-2.93v1.79h1.38v1h-1.38v4.6a1 1 0 0 0 .19.67.76.76 0 0 0 .63.22 2.74 2.74 0 0 0 .6-.08v1a3.73 3.73 0 0 1-1 .14 1.56 1.56 0 0 1-1.28-.52 2.16 2.16 0 0 1-.43-1.45v-4.59h-1.32v-1h1.35v-1.79z" fill="#4178a7"/></g></g></svg>