<svg xmlns="http://www.w3.org/2000/svg" xmlns:xlink="http://www.w3.org/1999/xlink" viewBox="0 0 885.25 805.34"><defs><linearGradient id="a" x1="497.79" y1="632.79" x2="719.13" y2="632.79" gradientUnits="userSpaceOnUse"><stop offset="0" stop-color="#cd6be6"/><stop offset=".49" stop-color="#6a36d9"/><stop offset="1" stop-color="#140735"/></linearGradient><linearGradient id="d" x1="593.11" y1="636.87" x2="631.72" y2="745.64" gradientUnits="userSpaceOnUse"><stop offset="0" stop-color="#380e26" stop-opacity="0"/><stop offset=".26" stop-color="#380e26" stop-opacity=".09"/><stop offset=".58" stop-color="#380d26" stop-opacity=".36"/><stop offset=".93" stop-color="#390b25" stop-opacity=".8"/><stop offset="1" stop-color="#390b25" stop-opacity=".9"/></linearGradient><linearGradient id="e" x1="581.75" y1="607.98" x2="540.19" y2="504.01" gradientUnits="userSpaceOnUse"><stop offset=".08" stop-color="#380e26" stop-opacity="0"/><stop offset=".45" stop-color="#380d26" stop-opacity=".41"/><stop offset=".82" stop-color="#390b25" stop-opacity=".9"/></linearGradient><linearGradient id="f" x1="466.3" y1="553.31" x2="252.39" y2="795.76" xlink:href="#a"/><linearGradient id="g" x1="335.05" y1="257.92" x2="574.86" y2="308.09" xlink:href="#a"/><linearGradient id="h" x1="500.61" y1="363.76" x2="330.67" y2="135.35" gradientUnits="userSpaceOnUse"><stop offset="0" stop-color="#380e26" stop-opacity="0"/><stop offset=".3" stop-color="#380e26" stop-opacity=".06"/><stop offset=".55" stop-color="#380d26" stop-opacity=".23"/><stop offset=".77" stop-color="#390c25" stop-opacity=".52"/><stop offset=".97" stop-color="#390b25" stop-opacity=".94"/><stop offset="1" stop-color="#390b25"/></linearGradient><linearGradient id="i" x1="741.35" y1="59.97" x2="766.78" y2="756.12" xlink:href="#a"/><linearGradient id="j" x1="234.13" y1="162.69" x2="86.64" y2="779.42" xlink:href="#a"/><linearGradient id="b" x1="265.55" y1="133.04" x2="146.47" y2="176.43" gradientUnits="userSpaceOnUse"><stop offset="0" stop-color="#380e26" stop-opacity="0"/><stop offset="1" stop-color="#380e26" stop-opacity=".4"/></linearGradient><linearGradient id="k" x1="166.3" y1="757.91" x2="92.41" y2="784.83" xlink:href="#b"/><linearGradient id="l" x1="486.69" y1="572.64" x2="412.36" y2="522" xlink:href="#b"/><linearGradient id="c" x1="769.14" y1="633.84" x2="810.61" y2="681.13" gradientUnits="userSpaceOnUse"><stop offset="0" stop-color="#380e26" stop-opacity="0"/><stop offset=".8" stop-color="#380e26" stop-opacity=".31"/><stop offset="1" stop-color="#380e26" stop-opacity=".4"/></linearGradient><linearGradient id="m" x1="449.01" y1="334.99" x2="531.87" y2="429.47" xlink:href="#c"/></defs><g data-name="Capa 2" style="isolation:isolate"><path d="M564.3 520.06c93.34 2.45 58.05 178.89 138 225.46l-72-41.85c-80-46.57-56-181.16-149.31-183.61z" fill="url(#a)"/><path d="M671 727.33l31.3 18.19c-80-46.57-44.69-223-138-225.46h-10c83.7 2.2 63.95 144.4 116.7 207.27z" fill="#fff" style="mix-blend-mode:overlay"/><path d="M564.3 520.06c93.34 2.45 58.05 178.89 138 225.46l-72-41.85c-80-46.57-56-181.16-149.31-183.61z" fill="url(#d)"/><path d="M564.3 520.06c93.34 2.45 58.05 178.89 138 225.46l-72-41.85c-80-46.57-56-181.16-149.31-183.61z" fill="url(#e)"/><path d="M481 520.06c-96.87-2.55-212.69 265.78-296.86 282.85-2.63.54-5.27 1-7.91 1.37l76.77-7.09a135.89 135.89 0 0 0 14.1-2.11c84.16-17.07 200.35-277.57 297.23-275z" fill="url(#f)"/><path d="M257.07 795.08a135.89 135.89 0 0 1-14.1 2.11l-56.73 5.24c-.71.18-1.41.34-2.11.48-2.63.54-5.27 1-7.91 1.37l76.78-7.09a135.89 135.89 0 0 0 14.1-2.11c83.41-16.92 198.28-272.94 294.63-275h-10c-96.38 2.06-211.25 258.08-294.66 275z" fill="#fff" style="mix-blend-mode:overlay"/><path d="M541.35 436.36C340 363.72 376.91 234.54 376.91 234.54S314 123.64 256.66 124.92H340c57.36-1.28 120.25 109.62 120.25 109.62s74.82 32 69.24 76c-8.92 70.18 11.86 125.82 11.86 125.82z" fill="url(#g)"/><path d="M450.21 234.54s74.82 32 69.24 76c-7.42 58.65 5.9 107.17 10.45 121.47q5.6 2.18 11.45 4.3s-20.78-55.64-11.9-125.77c5.58-44-69.24-76-69.24-76S397.32 123.64 340 124.92h-10c57.32-1.28 120.21 109.62 120.21 109.62z" fill="#fff" style="mix-blend-mode:overlay"/><path d="M541.35 436.36C340 363.72 376.91 234.54 376.91 234.54S314 123.64 256.66 124.92H340c57.36-1.28 120.25 109.62 120.25 109.62s74.82 32 69.24 76c-8.92 70.18 11.86 125.82 11.86 125.82z" opacity=".67" fill="url(#h)" style="mix-blend-mode:multiply"/><path d="M705.78 0c30.39 14 56.31 31.16 78.22 50.82 223.62 200.48 20.24 735.43-71.65 699.5a72.58 72.58 0 0 1-10-4.8l-72-41.85a71.45 71.45 0 0 0 10 4.8c91.89 35.94 284-457.17 60.38-657.65C678.79 31.16 652.87 14 622.48 0l44.37 5.05a52.6 52.6 0 0 0 15.74-.6z" fill="url(#i)"/><path d="M637 707.05a70 70 0 0 1-6.65-3.38l72 41.85a68.9 68.9 0 0 0 6.82 3.45l-.82-.45zm55.59-702.6l16.08-3.09c-1-.45-1.91-.91-2.89-1.36l-23.19 4.45c-1.6.31-3.22.53-4.84.68a52 52 0 0 0 14.84-.68zm-52.25 704c-1.11-.43-2.17-.88-3.22-1.34a73 73 0 0 0 9.22 4.34c91.89 35.94 288-460.17 64.38-660.65a310.27 310.27 0 0 0-75.06-49.3L622.48 0c30.39 14 56.31 31.16 78.24 50.82 223.61 200.48 31.51 693.59-60.38 657.65z" fill="#fff" style="mix-blend-mode:overlay"/><path d="M340 124.92c-57.4 1.27-267.72 122.36-256.25 368.37 10.84 232.34 89 311.56 169.22 303.9l-76.75 7.09C94.22 816 11.57 731.61.45 493.29-11 247.28 199.3 126.19 256.66 124.92z" fill="url(#j)"/><path d="M173.87 804.58l-6.06.56q3.03-.19 6.06-.56zM83.75 493.29C72.28 247.28 282.6 126.19 340 124.92h-10c-57.4 1.27-267.72 122.36-256.25 368.37C84.4 721.54 160 803 238.74 798.51l14.26-1.32c-80.24 7.66-158.41-71.56-169.25-303.9z" fill="#fff" style="mix-blend-mode:overlay"/><path d="M127 194s62.6-56.77 125.46-69.09h76.5s-20.82 4.37-32.29 9.15C266.61 146.55 209.44 142.71 127 194z" opacity=".8" fill="url(#b)"/><path d="M222.16 798.25s-43.34 5.37-63.1 6-66.28-7.62-100.38-67.85c0 0 44.94 69.79 126.51 49.07a98.51 98.51 0 0 0 36.97 12.78z" opacity=".5" fill="url(#k)"/><path d="M541.35 521.33H481s-34.71-5.58-99.5 68.2c0 0 51.83-57.15 129.27-53.33l12-6.7a46.3 46.3 0 0 1 4.64-2.27z" opacity=".5" fill="url(#l)"/><path d="M676 706.27s-16.48 9.13-26.14 6.29l66.76 37.76s58.77 33.4 142.08-229.08c0 0-104.84 258.54-182.7 185.03z" opacity=".5" fill="url(#c)"/><path d="M433.43 280.63s-27.19 63.82 0 96 103.67 59.73 103.67 59.73-53.53-55-46.73-77.87-22.95-81.9-56.94-77.86z" fill="url(#m)"/></g></svg>