<svg xmlns="http://www.w3.org/2000/svg" viewBox="0 0 220.39 221.6"><g data-name="Capa 2"><g data-name="Capa 46"><path d="M220.39 112.4a109.21 109.21 0 0 1-169.83 90.83L202 51.77a108.59 108.59 0 0 1 18.39 60.63z" fill="#c3c8cd"/><path d="M193.43 57.94L42 209.4a109.77 109.77 0 0 1-36.68-41.15l147-147a109.77 109.77 0 0 1 41.11 36.69z" fill="#b3b6b7"/><path d="M158.88 11.92l-147 147a109.26 109.26 0 0 1 147-147z" fill="#c3c8cd"/><path fill="#0472ae" d="M29.2 62.65h21.58v131.29H29.2z"/><path fill="#14598c" d="M75.13 163.1l.04-104.02-45.98-.01.01-22.29 78.34.04-.01 22.29-10.78-.02-.04 104.02-21.58-.01z"/><path d="M100.37 198l-4.64-.56c-11.14-1.43-18.25-8.62-20.55-20.82l-.05-.26v-9.69h21.58v4.66l.2 2.17a3.54 3.54 0 0 0 1.72 1.75l2.14.46h60.76l2.15-.46a3.59 3.59 0 0 0 1.72-1.74l.2-2.17v-53.26l-.2-1.88a5.13 5.13 0 0 0-2-2.09l-2.07-.43H132l-.28-.06a24.86 24.86 0 0 1-13.28-7.36 26.35 26.35 0 0 1-7-13.71V58.13a27.37 27.37 0 0 1 7.19-13.65 22 22 0 0 1 13.46-7.13l4.67-.57h25.08l4.66.56a22 22 0 0 1 13.5 7.09A26.9 26.9 0 0 1 187.16 58l.05.27V70h-21.58v-6.79l-.2-1.88a3.61 3.61 0 0 0-1.79-1.82l-2.06-.43H137l-2.15.44a3.44 3.44 0 0 0-1.7 1.85l-.2 1.83v24.06l.2 1.89A3.57 3.57 0 0 0 135 91l2 .42h25.45l4.14.57A21.86 21.86 0 0 1 180 99.11a27.39 27.39 0 0 1 7.16 13.66l.05.27v63.37l-.06.29c-2.54 12.34-9.45 19.32-20.54 20.75l-4.66.57z" fill="#0472ae"/></g></g></svg>