<svg xmlns="http://www.w3.org/2000/svg" viewBox="0 0 44.69 44.69"><g id="Capa_2" data-name="Capa 2"><g id="redes"><g id="face"><path d="M11.25,39.35H22.34V27.26h-4v-4h4v-5a5,5,0,0,1,5-5h5v4h-4a2,2,0,0,0-2,2v4h5.8l-.67,4H26.33V39.35h9a5,5,0,0,0,5-5v-24a5,5,0,0,0-5-5h-24a5,5,0,0,0-5,5v24A5,5,0,0,0,11.25,39.35Zm-3-29a3,3,0,0,1,3-3h24a3,3,0,0,1,3,3v24a3,3,0,0,1-3,3h-7V29.25h4.83l1.33-8H28.32v-2h6v-8h-7a7,7,0,0,0-7,7v3h-4v8h4v8.11h-9.1a3,3,0,0,1-3-3Z" style="fill:#fff"/><circle cx="22.34" cy="22.34" r="22.34" style="fill:none"/></g></g></g></svg>