<svg xmlns="http://www.w3.org/2000/svg" viewBox="0 0 35.52 35.52"><g id="Capa_2" data-name="Capa 2"><g id="redes"><g id="linkedin"><g id="Page-1"><g id="Linkedin-2" data-name="Linkedin"><path id="Stroke-18" d="M30.66,20.51v9H24.88V21.13c0-2.19-.9-3.68-2.89-3.68a2.92,2.92,0,0,0-2.76,2,3.63,3.63,0,0,0-.12,1.32v8.74H13.38s.07-14.81,0-16.15h5.73v2.53c.33-1.1,2.16-2.69,5.08-2.69,3.62,0,6.47,2.33,6.47,7.33Z" style="fill:none;stroke:#fff;stroke-linejoin:round;stroke-width:1.5px"/><polygon id="Stroke-19" points="5.17 29.49 10.27 29.49 10.27 13.34 5.17 13.34 5.17 29.49" style="fill:none;stroke:#fff;stroke-linejoin:round;stroke-width:1.5px"/><path id="Stroke-20" d="M10.59,8.6a2.57,2.57,0,0,1-2.82,2.54h0A2.55,2.55,0,1,1,7.8,6.06,2.56,2.56,0,0,1,10.59,8.6Z" style="fill:none;stroke:#fff;stroke-linejoin:round;stroke-width:1.5px"/><path id="Stroke-103" d="M32.42,34.77H3.1A2.35,2.35,0,0,1,.75,32.42V3.1A2.35,2.35,0,0,1,3.1.75H32.42A2.35,2.35,0,0,1,34.77,3.1V32.42a2.35,2.35,0,0,1-2.35,2.35Z" style="fill:none;stroke:#fff;stroke-linejoin:round;stroke-width:1.5px"/></g></g></g></g></g></svg>