<svg xmlns="http://www.w3.org/2000/svg" viewBox="0 0 220.39 221.6"><g id="ecc6c58d-c43b-4542-9516-a20eec0976c8" data-name="Capa 2"><g id="b6fe5fb7-cd66-4d0b-b63e-afdcb40d1b42" data-name="Capa 46"><path d="M220.39,112.4A109.21,109.21,0,0,1,50.56,203.23L202,51.77A108.59,108.59,0,0,1,220.39,112.4Z" fill="#c3c8cd"/><path d="M193.43,57.94,42,209.4A109.77,109.77,0,0,1,5.32,168.25l147-147A109.77,109.77,0,0,1,193.43,57.94Z" fill="#b3b6b7"/><path d="M158.88,11.92l-147,147a109.26,109.26,0,0,1,147-147Z" fill="#c3c8cd"/><rect x="29.2" y="62.65" width="21.58" height="131.29" fill="#0472ae"/><polygon points="75.13 163.1 75.17 59.08 29.19 59.07 29.2 36.78 107.54 36.82 107.53 59.11 96.75 59.09 96.71 163.11 75.13 163.1" fill="#14598c"/><path d="M100.37,198l-4.64-.56c-11.14-1.43-18.25-8.62-20.55-20.82l-.05-.26v-9.69H96.71v4.66l.2,2.17a3.54,3.54,0,0,0,1.72,1.75l2.14.46h60.76l2.15-.46a3.59,3.59,0,0,0,1.72-1.74l.2-2.17V118.08l-.2-1.88a5.13,5.13,0,0,0-2-2.09l-2.07-.43H132l-.28-.06a24.86,24.86,0,0,1-13.28-7.36,26.35,26.35,0,0,1-7-13.71l0-.25V58.4l0-.27a27.37,27.37,0,0,1,7.19-13.65,22,22,0,0,1,13.46-7.13l4.67-.57,25.08,0,4.66.56A22,22,0,0,1,180,44.43,26.9,26.9,0,0,1,187.16,58l.05.27V70H165.63V63.21l-.2-1.88a3.61,3.61,0,0,0-1.79-1.82l-2.06-.43H137l-2.15.44a3.44,3.44,0,0,0-1.7,1.85l-.2,1.83V87.26l.2,1.89A3.57,3.57,0,0,0,135,91l2,.42,25.45,0,4.14.57A21.86,21.86,0,0,1,180,99.11a27.39,27.39,0,0,1,7.16,13.66l.05.27v63.37l-.06.29c-2.54,12.34-9.45,19.32-20.54,20.75l-4.66.57Z" fill="#0472ae"/></g></g></svg>