<svg xmlns="http://www.w3.org/2000/svg" viewBox="0 0 178.09 178.09"><g id="afd5f086-1be7-499e-a131-8539e8b902b4" data-name="Capa 2"><g id="be63819a-0ee9-44f3-8e38-ffc5535762ff" data-name="Capa 46"><circle cx="89.04" cy="89.04" r="89.04" fill="#c4c7cc"/><rect x="17.3" y="53.38" width="21.58" height="96.59" fill="#0472ae"/><polygon points="55.32 149.97 55.36 50.41 17.29 50.4 17.29 28.11 92.79 28.14 92.78 50.43 76.94 50.42 76.9 149.98 55.32 149.97" fill="#12598c"/><path d="M120.62,150l-4.64-.47c-11.14-1.19-18.24-7.21-20.55-17.41l-.05-.22v-8.1H117v3.9l.2,1.82a3.37,3.37,0,0,0,1.72,1.45l2.14.39h14.1l2.14-.38A3.44,3.44,0,0,0,139,129.5l.2-1.82V96.09l-.2-1.57a4.7,4.7,0,0,0-2-1.75L135,92.41h-19l-.27-.05a26.49,26.49,0,0,1-13.28-6.15,21,21,0,0,1-7-11.47l0-.21,0-28.33.05-.23a21.86,21.86,0,0,1,7.19-11.42,23.63,23.63,0,0,1,13.45-6l4.67-.47h14.77l4.66.47a23.74,23.74,0,0,1,13.44,5.91,21.64,21.64,0,0,1,7.2,11.33l.05.23v9.81H139.22V50.21l-.2-1.58a3.46,3.46,0,0,0-1.79-1.52l-2.06-.36H121l-2.16.37a3.25,3.25,0,0,0-1.7,1.55l-.2,1.53V70.31l.2,1.58a3.26,3.26,0,0,0,1.77,1.52l2.06.36h15.13l4.14.48a23.48,23.48,0,0,1,13.38,6,22,22,0,0,1,7.16,11.43l.05.22v40l-.06.24c-2.54,10.32-9.45,16.15-20.54,17.35l-4.66.47Z" fill="#0472ae"/></g></g></svg>