<svg xmlns="http://www.w3.org/2000/svg" xmlns:xlink="http://www.w3.org/1999/xlink" viewBox="0 0 885.25 805.34"><defs><linearGradient id="a24323af-6103-4244-8321-808d6a435dcd" x1="497.79" y1="632.79" x2="719.13" y2="632.79" gradientUnits="userSpaceOnUse"><stop offset="0" stop-color="#cd6be6"/><stop offset="0.49" stop-color="#6a36d9"/><stop offset="1" stop-color="#140735"/></linearGradient><linearGradient id="a4762979-817c-4616-968e-966ac77e4bc3" x1="593.11" y1="636.87" x2="631.72" y2="745.64" gradientUnits="userSpaceOnUse"><stop offset="0" stop-color="#380e26" stop-opacity="0"/><stop offset="0.26" stop-color="#380e26" stop-opacity="0.09"/><stop offset="0.58" stop-color="#380d26" stop-opacity="0.36"/><stop offset="0.93" stop-color="#390b25" stop-opacity="0.8"/><stop offset="1" stop-color="#390b25" stop-opacity="0.9"/></linearGradient><linearGradient id="b29d9e26-b754-40d1-b335-113f224d36a1" x1="581.75" y1="607.98" x2="540.19" y2="504.01" gradientUnits="userSpaceOnUse"><stop offset="0.08" stop-color="#380e26" stop-opacity="0"/><stop offset="0.45" stop-color="#380d26" stop-opacity="0.41"/><stop offset="0.82" stop-color="#390b25" stop-opacity="0.9"/></linearGradient><linearGradient id="ec129c91-2897-49a1-8232-5ff5bb6107ce" x1="466.3" y1="553.31" x2="252.39" y2="795.76" xlink:href="#a24323af-6103-4244-8321-808d6a435dcd"/><linearGradient id="a5ce13e6-3a2e-4865-980c-00943e7c8496" x1="335.05" y1="257.92" x2="574.86" y2="308.09" xlink:href="#a24323af-6103-4244-8321-808d6a435dcd"/><linearGradient id="b5b24fe2-a836-4c97-a310-c0a987659423" x1="500.61" y1="363.76" x2="330.67" y2="135.35" gradientUnits="userSpaceOnUse"><stop offset="0" stop-color="#380e26" stop-opacity="0"/><stop offset="0.3" stop-color="#380e26" stop-opacity="0.06"/><stop offset="0.55" stop-color="#380d26" stop-opacity="0.23"/><stop offset="0.77" stop-color="#390c25" stop-opacity="0.52"/><stop offset="0.97" stop-color="#390b25" stop-opacity="0.94"/><stop offset="1" stop-color="#390b25"/></linearGradient><linearGradient id="f9696374-6c8a-4d9b-b642-7cc6db0404c0" x1="741.35" y1="59.97" x2="766.78" y2="756.12" xlink:href="#a24323af-6103-4244-8321-808d6a435dcd"/><linearGradient id="a716b5a3-6bea-4b76-999f-42c80bb70f2c" x1="234.13" y1="162.69" x2="86.64" y2="779.42" xlink:href="#a24323af-6103-4244-8321-808d6a435dcd"/><linearGradient id="a2932104-da19-46c5-a0b1-f489caf4105c" x1="265.55" y1="133.04" x2="146.47" y2="176.43" gradientUnits="userSpaceOnUse"><stop offset="0" stop-color="#380e26" stop-opacity="0"/><stop offset="1" stop-color="#380e26" stop-opacity="0.4"/></linearGradient><linearGradient id="e4707ae3-9d4d-426b-80ca-f54cc9e51e6a" x1="166.3" y1="757.91" x2="92.41" y2="784.83" xlink:href="#a2932104-da19-46c5-a0b1-f489caf4105c"/><linearGradient id="b989aeb0-3c10-4ef3-9c9b-b7a41bb656a9" x1="486.69" y1="572.64" x2="412.36" y2="522" xlink:href="#a2932104-da19-46c5-a0b1-f489caf4105c"/><linearGradient id="b6d5a68c-e8e9-466d-bf40-1088a9dfad78" x1="769.14" y1="633.84" x2="810.61" y2="681.13" gradientUnits="userSpaceOnUse"><stop offset="0" stop-color="#380e26" stop-opacity="0"/><stop offset="0.8" stop-color="#380e26" stop-opacity="0.31"/><stop offset="1" stop-color="#380e26" stop-opacity="0.4"/></linearGradient><linearGradient id="ed2116d6-c3e5-4329-8a0a-e89b9170e81a" x1="449.01" y1="334.99" x2="531.87" y2="429.47" xlink:href="#b6d5a68c-e8e9-466d-bf40-1088a9dfad78"/></defs><g style="isolation:isolate"><g id="b3e87f12-f015-459e-921d-6f89e4c28839" data-name="Capa 2"><g id="aa3f9e22-c791-4ab6-94ff-8d3ef274c8dd" data-name="Capa 2"><path d="M564.3,520.06c93.34,2.45,58.05,178.89,138,225.46l-72-41.85c-80-46.57-56-181.16-149.31-183.61Z" fill="url(#a24323af-6103-4244-8321-808d6a435dcd)"/><g style="mix-blend-mode:overlay"><path d="M671,727.33l31.3,18.19c-80-46.57-44.69-223-138-225.46h-10C638,522.26,618.25,664.46,671,727.33Z" fill="#fff"/></g><path d="M564.3,520.06c93.34,2.45,58.05,178.89,138,225.46l-72-41.85c-80-46.57-56-181.16-149.31-183.61Z" fill="url(#a4762979-817c-4616-968e-966ac77e4bc3)"/><path d="M564.3,520.06c93.34,2.45,58.05,178.89,138,225.46l-72-41.85c-80-46.57-56-181.16-149.31-183.61Z" fill="url(#b29d9e26-b754-40d1-b335-113f224d36a1)"/><path d="M481,520.06c-96.87-2.55-212.69,265.78-296.86,282.85-2.63.54-5.27,1-7.91,1.37L253,797.19a135.89,135.89,0,0,0,14.1-2.11c84.16-17.07,200.35-277.57,297.23-275Z" fill="url(#ec129c91-2897-49a1-8232-5ff5bb6107ce)"/><g style="mix-blend-mode:overlay"><path d="M257.07,795.08a135.89,135.89,0,0,1-14.1,2.11l-56.73,5.24c-.71.18-1.41.34-2.11.48-2.63.54-5.27,1-7.91,1.37L253,797.19a135.89,135.89,0,0,0,14.1-2.11c83.41-16.92,198.28-272.94,294.63-275h-10C455.35,522.14,340.48,778.16,257.07,795.08Z" fill="#fff"/></g><path d="M541.35,436.36C340,363.72,376.91,234.54,376.91,234.54S314,123.64,256.66,124.92H340c57.36-1.28,120.25,109.62,120.25,109.62s74.82,32,69.24,76C520.57,380.72,541.35,436.36,541.35,436.36Z" fill="url(#a5ce13e6-3a2e-4865-980c-00943e7c8496)"/><g style="mix-blend-mode:overlay"><path d="M450.21,234.54s74.82,32,69.24,76c-7.42,58.65,5.9,107.17,10.45,121.47q5.6,2.18,11.45,4.3s-20.78-55.64-11.9-125.77c5.58-44-69.24-76-69.24-76S397.32,123.64,340,124.92H330C387.32,123.64,450.21,234.54,450.21,234.54Z" fill="#fff"/></g><path d="M541.35,436.36C340,363.72,376.91,234.54,376.91,234.54S314,123.64,256.66,124.92H340c57.36-1.28,120.25,109.62,120.25,109.62s74.82,32,69.24,76C520.57,380.72,541.35,436.36,541.35,436.36Z" opacity="0.67" fill="url(#b5b24fe2-a836-4c97-a310-c0a987659423)" style="mix-blend-mode:multiply"/><path d="M705.78,0C736.17,14,762.09,31.16,784,50.82c223.62,200.48,20.24,735.43-71.65,699.5a72.58,72.58,0,0,1-10-4.8l-72-41.85a71.45,71.45,0,0,0,10,4.8c91.89,35.94,284-457.17,60.38-657.65C678.79,31.16,652.87,14,622.48,0l44.37,5.05a52.6,52.6,0,0,0,15.74-.6Z" fill="url(#f9696374-6c8a-4d9b-b642-7cc6db0404c0)"/><g style="mix-blend-mode:overlay"><path d="M637,707.05a70,70,0,0,1-6.65-3.38l72,41.85a68.9,68.9,0,0,0,6.82,3.45l-.82-.45ZM692.59,4.45l16.08-3.09c-1-.45-1.91-.91-2.89-1.36L682.59,4.45c-1.6.31-3.22.53-4.84.68A52,52,0,0,0,692.59,4.45Zm-52.25,704c-1.11-.43-2.17-.88-3.22-1.34a73,73,0,0,0,9.22,4.34c91.89,35.94,288-460.17,64.38-660.65A310.27,310.27,0,0,0,635.66,1.5L622.48,0c30.39,14,56.31,31.16,78.24,50.82C924.33,251.3,732.23,744.41,640.34,708.47Z" fill="#fff"/></g><path d="M340,124.92C282.6,126.19,72.28,247.28,83.75,493.29c10.84,232.34,89,311.56,169.22,303.9l-76.75,7.09C94.22,816,11.57,731.61.45,493.29-11,247.28,199.3,126.19,256.66,124.92Z" fill="url(#a716b5a3-6bea-4b76-999f-42c80bb70f2c)"/><g style="mix-blend-mode:overlay"><path d="M173.87,804.58l-6.06.56Q170.84,804.95,173.87,804.58ZM83.75,493.29C72.28,247.28,282.6,126.19,340,124.92H330C272.6,126.19,62.28,247.28,73.75,493.29,84.4,721.54,160,803,238.74,798.51L253,797.19C172.76,804.85,94.59,725.63,83.75,493.29Z" fill="#fff"/></g><path d="M127,194s62.6-56.77,125.46-69.09l76.5,0s-20.82,4.37-32.29,9.15C266.61,146.55,209.44,142.71,127,194Z" opacity="0.8" fill="url(#a2932104-da19-46c5-a0b1-f489caf4105c)"/><path d="M222.16,798.25s-43.34,5.37-63.1,6-66.28-7.62-100.38-67.85c0,0,44.94,69.79,126.51,49.07A98.51,98.51,0,0,0,222.16,798.25Z" opacity="0.5" fill="url(#e4707ae3-9d4d-426b-80ca-f54cc9e51e6a)"/><path d="M541.35,521.33H481s-34.71-5.58-99.5,68.2c0,0,51.83-57.15,129.27-53.33l12-6.7a46.3,46.3,0,0,1,4.64-2.27Z" opacity="0.5" fill="url(#b989aeb0-3c10-4ef3-9c9b-b7a41bb656a9)"/><path d="M676,706.27s-16.48,9.13-26.14,6.29l66.76,37.76s58.77,33.4,142.08-229.08C858.7,521.24,753.86,779.78,676,706.27Z" opacity="0.5" fill="url(#b6d5a68c-e8e9-466d-bf40-1088a9dfad78)"/><path d="M433.43,280.63s-27.19,63.82,0,96S537.1,436.36,537.1,436.36s-53.53-55-46.73-77.87S467.42,276.59,433.43,280.63Z" fill="url(#ed2116d6-c3e5-4329-8a0a-e89b9170e81a)"/></g></g></g></svg>