<svg xmlns="http://www.w3.org/2000/svg" viewBox="0 0 138.77 174.91"><g id="f5d0cd77-2c66-4972-a5bc-655c8376cc6b" data-name="Capa 2"><g id="b6293ee0-867c-4529-a3f1-20c12134e0e0" data-name="NEGATIVO"><g id="a0bb7e6c-a0f8-4806-939d-7420065f6460" data-name="Capa 25"><path d="M138.77,70.78A68.76,68.76,0,0,1,31.84,128L127.21,32.6A68.39,68.39,0,0,1,138.77,70.78Z" fill="#c3c8cd"/><path d="M121.8,36.48,26.43,131.85A69,69,0,0,1,3.35,105.94L95.89,13.41A69.23,69.23,0,0,1,121.8,36.48Z" fill="#b3b6b7"/><path d="M100,7.51,7.51,100A68.79,68.79,0,0,1,100,7.51Z" fill="#c3c8cd"/><rect x="18.39" y="39.45" width="13.59" height="82.67" fill="#0472ae"/><polygon points="47.31 102.7 47.33 37.2 18.38 37.2 18.39 23.16 67.72 23.18 67.71 37.22 60.92 37.21 60.9 102.7 47.31 102.7" fill="#14598c"/><path d="M63.2,124.68l-2.92-.36c-7-.89-11.49-5.43-12.94-13.11l0-.16V105H60.9v2.93l.12,1.37a2.21,2.21,0,0,0,1.09,1.1l1.34.29h38.26l1.35-.28a2.29,2.29,0,0,0,1.09-1.1l.13-1.37V74.35l-.13-1.18a3.09,3.09,0,0,0-1.24-1.31l-1.3-.28H83.14l-.18,0a15.69,15.69,0,0,1-8.36-4.63,16.57,16.57,0,0,1-4.42-8.64l0-.16V36.77l0-.16A17.17,17.17,0,0,1,74.71,28a13.84,13.84,0,0,1,8.48-4.49l2.93-.36h15.8l2.93.36A13.84,13.84,0,0,1,113.32,28a17,17,0,0,1,4.53,8.53l0,.17v7.39H104.29V39.8l-.12-1.18A2.34,2.34,0,0,0,103,37.47l-1.3-.27H86.29l-1.35.28a2.14,2.14,0,0,0-1.07,1.17l-.13,1.15V54.94l.12,1.19A2.19,2.19,0,0,0,85,57.27l1.29.27h16l2.6.36a13.83,13.83,0,0,1,8.43,4.49A17.35,17.35,0,0,1,117.84,71l0,.17v39.9l0,.18c-1.6,7.77-6,12.17-12.94,13.07l-2.93.36Z" fill="#0472ae"/><path d="M14.68,163.09,14,163a3.09,3.09,0,0,1-2.83-2.77v-1.42h2.48v.73l0,.43a1,1,0,0,0,.58.54l.41.09h5l.41-.09a1,1,0,0,0,.58-.54l0-.43v-3.21l0-.38a1.21,1.21,0,0,0-.59-.59l-.43-.08H14a3.58,3.58,0,0,1-2.82-2.81v-4.55a3.65,3.65,0,0,1,1-1.82,3,3,0,0,1,1.83-.94l.7-.08h4.91l.7.08a3,3,0,0,1,1.83.93,3.58,3.58,0,0,1,1,1.81v1.28H20.67v-.61l0-.36a1,1,0,0,0-.58-.57l-.41-.08h-5l-.41.08a1,1,0,0,0-.58.57l0,.36v3.21l0,.37a1,1,0,0,0,.58.57l.41.08h5l.61.08a3,3,0,0,1,1.82.93,3.64,3.64,0,0,1,1,1.83v4.59A3.14,3.14,0,0,1,20.33,163l-.7.08Z" fill="#fff"/><path d="M28.62,163a3.07,3.07,0,0,1-1.83-.94,3.52,3.52,0,0,1-1-1.82V147.93a3.54,3.54,0,0,1,1-1.83,3.05,3.05,0,0,1,1.83-.93l.7-.08h4.92l.7.08a3,3,0,0,1,1.82.93,3.56,3.56,0,0,1,1,1.83v12.32a3.53,3.53,0,0,1-1,1.82,3,3,0,0,1-1.82.94l-.7.08H29.32Zm5.65-2.4.41-.09a1,1,0,0,0,.57-.54l0-.43v-11l0-.36a1,1,0,0,0-.57-.57l-.41-.08h-5l-.41.08a1.13,1.13,0,0,0-.57.57l0,.36v11l0,.43a.94.94,0,0,0,.57.54l.41.09Z" fill="#fff"/><path d="M40.78,163.09v-18h2.48v15.52h9.5v2.48Z" fill="#fff"/><path d="M57.17,163.05a3.49,3.49,0,0,1-1.84-1,3.37,3.37,0,0,1-1-1.82V145.09h2.48v14.46l0,.43a1,1,0,0,0,.57.54l.41.09h5l.41-.09a1,1,0,0,0,.57-.54l0-.43V145.09h2.48v15.16a3.43,3.43,0,0,1-1,1.82,3.49,3.49,0,0,1-1.84,1l-.7,0Z" fill="#fff"/><path d="M74.17,163.09V147.57H69.42v-2.48h12v2.48H76.65v15.52Z" fill="#fff"/><path d="M86.36,145.09v18H83.88v-18Z" fill="#fff"/><path d="M92.4,163a3.07,3.07,0,0,1-1.83-.94,3.52,3.52,0,0,1-1-1.82V147.93a3.54,3.54,0,0,1,1-1.83,3.05,3.05,0,0,1,1.83-.93l.7-.08H98l.7.08a3,3,0,0,1,1.82.93,3.56,3.56,0,0,1,1,1.83v12.32a3.53,3.53,0,0,1-1,1.82,3,3,0,0,1-1.82.94l-.7.08H93.1Zm5.64-2.4.42-.09A1,1,0,0,0,99,160l0-.43v-11l0-.36a1,1,0,0,0-.57-.57l-.42-.08h-5l-.41.08a1.13,1.13,0,0,0-.57.57l0,.36v11l0,.43a.94.94,0,0,0,.57.54l.41.09Z" fill="#fff"/><path d="M114,163.09l-7-12.83v12.83h-2.48v-18H107l7,12.8v-12.8h2.48v18Z" fill="#fff"/><path d="M123.23,163.09l-.7-.08a3.09,3.09,0,0,1-2.82-2.77v-1.42h2.48v.73l0,.43a1,1,0,0,0,.57.54l.42.09h5l.41-.09a.94.94,0,0,0,.57-.54l.05-.43v-3.21l-.05-.38a1.17,1.17,0,0,0-.59-.59l-.42-.08h-5.63a3.49,3.49,0,0,1-1.84-1,3.43,3.43,0,0,1-1-1.83v-4.55a3.57,3.57,0,0,1,1-1.82,3,3,0,0,1,1.83-.94l.69-.08h4.92l.7.08a3.05,3.05,0,0,1,1.83.93,3.49,3.49,0,0,1,1,1.81v1.28h-2.47v-.61l-.05-.36a1,1,0,0,0-.57-.57l-.41-.08h-5l-.42.08a1,1,0,0,0-.57.57l0,.36v3.21l0,.37a1,1,0,0,0,.57.57l.41.08h5l.62.08a3,3,0,0,1,1.82.93,3.62,3.62,0,0,1,1,1.83v4.59a3.13,3.13,0,0,1-2.82,2.77l-.69.08Z" fill="#fff"/><path d="M25,173.67h-.82V167.4H25Z" fill="#dadada"/><path d="M27.11,169l0,.58a1.71,1.71,0,0,1,1.39-.67c1,0,1.48.56,1.49,1.67v3.08h-.79v-3.09a1.11,1.11,0,0,0-.23-.74,1,1,0,0,0-.71-.24,1.21,1.21,0,0,0-.68.2,1.35,1.35,0,0,0-.45.55v3.32h-.8V169Z" fill="#dadada"/><path d="M32,169l0,.58a1.72,1.72,0,0,1,1.4-.67c1,0,1.48.56,1.49,1.67v3.08h-.8v-3.09a1.06,1.06,0,0,0-.23-.74.93.93,0,0,0-.7-.24,1.19,1.19,0,0,0-.68.2,1.38,1.38,0,0,0-.46.55v3.32h-.8V169Z" fill="#dadada"/><path d="M35.88,171.29a2.77,2.77,0,0,1,.27-1.23,2,2,0,0,1,.74-.84,2,2,0,0,1,1.1-.3,2,2,0,0,1,1.54.66,2.54,2.54,0,0,1,.59,1.75v.06a2.84,2.84,0,0,1-.26,1.22A2,2,0,0,1,38,173.75a2,2,0,0,1-1.54-.66,2.52,2.52,0,0,1-.58-1.74Zm.8.1a2,2,0,0,0,.36,1.24,1.22,1.22,0,0,0,1.92,0,2.2,2.2,0,0,0,.36-1.34,2,2,0,0,0-.36-1.24,1.16,1.16,0,0,0-1-.47,1.13,1.13,0,0,0-1,.47A2.16,2.16,0,0,0,36.68,171.39Z" fill="#dadada"/><path d="M42.59,172.59,43.74,169h.81l-1.67,4.66h-.6L40.59,169h.81Z" fill="#dadada"/><path d="M48.13,173.67a1.7,1.7,0,0,1-.11-.49,1.79,1.79,0,0,1-1.33.57,1.65,1.65,0,0,1-1.13-.39,1.28,1.28,0,0,1-.44-1,1.34,1.34,0,0,1,.55-1.13,2.68,2.68,0,0,1,1.56-.4H48v-.36a.94.94,0,0,0-.25-.67,1,1,0,0,0-.74-.25,1.18,1.18,0,0,0-.71.22.62.62,0,0,0-.29.52h-.8a1.1,1.1,0,0,1,.24-.67,1.76,1.76,0,0,1,.67-.52,2.26,2.26,0,0,1,.94-.19,1.9,1.9,0,0,1,1.26.4,1.47,1.47,0,0,1,.47,1.11v2.15a2.64,2.64,0,0,0,.17,1v.07Zm-1.32-.61a1.41,1.41,0,0,0,.71-.2,1.13,1.13,0,0,0,.49-.5v-1h-.63c-1,0-1.46.28-1.46.85a.72.72,0,0,0,.25.59A1,1,0,0,0,46.81,173.06Z" fill="#dadada"/><path d="M51.13,167.88V169H52v.61h-.87v2.9a.66.66,0,0,0,.12.42.49.49,0,0,0,.39.14A1.69,1.69,0,0,0,52,173v.65a2.62,2.62,0,0,1-.61.08,1,1,0,0,1-.8-.32,1.35,1.35,0,0,1-.28-.92v-2.89h-.84V169h.84v-1.13Z" fill="#dadada"/><path d="M52.93,167.77a.44.44,0,0,1,.12-.32.45.45,0,0,1,.35-.14.46.46,0,0,1,.36.14.44.44,0,0,1,.12.32.48.48,0,0,1-.12.33.49.49,0,0,1-.36.13.43.43,0,0,1-.47-.46Zm.86,5.9H53V169h.79Z" fill="#dadada"/><path d="M54.86,171.29a2.77,2.77,0,0,1,.27-1.23,2,2,0,0,1,.75-.84,2,2,0,0,1,1.09-.3,2,2,0,0,1,1.54.66,2.54,2.54,0,0,1,.59,1.75v.06a2.84,2.84,0,0,1-.26,1.22,2,2,0,0,1-.75.84,2.05,2.05,0,0,1-1.11.3,2,2,0,0,1-1.53-.66,2.48,2.48,0,0,1-.59-1.74Zm.8.1a2,2,0,0,0,.36,1.24,1.16,1.16,0,0,0,1,.47,1.14,1.14,0,0,0,1-.47,2.2,2.2,0,0,0,.36-1.34,2,2,0,0,0-.36-1.24,1.15,1.15,0,0,0-1-.47,1.13,1.13,0,0,0-.95.47A2.16,2.16,0,0,0,55.66,171.39Z" fill="#dadada"/><path d="M60.85,169l0,.58a1.71,1.71,0,0,1,1.39-.67c1,0,1.48.56,1.49,1.67v3.08H63v-3.09a1.06,1.06,0,0,0-.23-.74.91.91,0,0,0-.7-.24,1.19,1.19,0,0,0-.68.2,1.38,1.38,0,0,0-.46.55v3.32H60.1V169Z" fill="#dadada"/><path d="M64.94,174.91l-.46-.31a2.13,2.13,0,0,0,.43-1.16v-.72h.77v.63a2.13,2.13,0,0,1-.74,1.56Z" fill="#dadada"/><path d="M73.16,168.07h-2v5.6h-.82v-5.6h-2v-.67h4.85Z" fill="#dadada"/><path d="M75.89,169.72a2.38,2.38,0,0,0-.39,0,1,1,0,0,0-1.06.67v3.31h-.8V169h.77l0,.54a1.23,1.23,0,0,1,1.11-.63.82.82,0,0,1,.35.06Z" fill="#dadada"/><path d="M79.5,173.2a1.69,1.69,0,0,1-1.37.55,1.44,1.44,0,0,1-1.13-.43,1.92,1.92,0,0,1-.4-1.28v-3h.8v3c0,.7.29,1.06.86,1.06a1.19,1.19,0,0,0,1.21-.68V169h.8v4.66h-.76Z" fill="#dadada"/><path d="M84.19,172.43a.59.59,0,0,0-.24-.5,2.41,2.41,0,0,0-.85-.31,4.33,4.33,0,0,1-1-.31,1.34,1.34,0,0,1-.52-.43,1,1,0,0,1-.17-.59,1.2,1.2,0,0,1,.48-1,1.87,1.87,0,0,1,1.24-.4,1.93,1.93,0,0,1,1.28.41,1.3,1.3,0,0,1,.5,1h-.8a.75.75,0,0,0-.28-.57,1,1,0,0,0-.7-.23,1.06,1.06,0,0,0-.68.19.6.6,0,0,0-.25.49.5.5,0,0,0,.23.44,3.09,3.09,0,0,0,.83.28,4,4,0,0,1,1,.31,1.5,1.5,0,0,1,.55.45,1.07,1.07,0,0,1,.18.63,1.19,1.19,0,0,1-.5,1,2,2,0,0,1-1.3.38,2.17,2.17,0,0,1-1-.2,1.55,1.55,0,0,1-.68-.55,1.35,1.35,0,0,1-.24-.77h.79a.86.86,0,0,0,.33.64,1.25,1.25,0,0,0,.78.23,1.29,1.29,0,0,0,.73-.18A.57.57,0,0,0,84.19,172.43Z" fill="#dadada"/><path d="M87.11,167.88V169H88v.61h-.87v2.9a.72.72,0,0,0,.11.42.51.51,0,0,0,.4.14A1.69,1.69,0,0,0,88,173v.65a2.69,2.69,0,0,1-.61.08,1,1,0,0,1-.81-.32,1.4,1.4,0,0,1-.27-.92v-2.89h-.85V169h.85v-1.13Z" fill="#dadada"/><path d="M90.92,172a1.45,1.45,0,0,1,.25-.83,3.86,3.86,0,0,1,1-.88,4.13,4.13,0,0,1-.55-.82,1.4,1.4,0,0,1-.15-.61,1.45,1.45,0,0,1,.43-1.12,1.58,1.58,0,0,1,1.14-.41,1.56,1.56,0,0,1,1.07.38,1.22,1.22,0,0,1,.42.95,1.34,1.34,0,0,1-.19.7,2.48,2.48,0,0,1-.67.67l-.46.34L94.56,172a2.62,2.62,0,0,0,.3-1.25h.71a3,3,0,0,1-.53,1.82l.9,1.08H95l-.41-.5a2.23,2.23,0,0,1-.75.43,2.65,2.65,0,0,1-.87.15,2.17,2.17,0,0,1-1.47-.48A1.65,1.65,0,0,1,90.92,172Zm2,1.12a1.69,1.69,0,0,0,1.16-.48l-1.53-1.83-.14.1a1.45,1.45,0,0,0-.72,1.09,1.08,1.08,0,0,0,.33.82A1.29,1.29,0,0,0,93,173.1Zm-.72-4.29a1.78,1.78,0,0,0,.51,1l.51-.35a1.5,1.5,0,0,0,.4-.4.88.88,0,0,0,.1-.45.63.63,0,0,0-.21-.48A.79.79,0,0,0,93,168a.68.68,0,0,0-.56.24A.86.86,0,0,0,92.23,168.81Z" fill="#dadada"/><path d="M100.72,170.87a3.85,3.85,0,0,1-1.55-.75,1.44,1.44,0,0,1-.48-1.1,1.52,1.52,0,0,1,.59-1.22,2.33,2.33,0,0,1,1.54-.49,2.52,2.52,0,0,1,1.15.25,1.88,1.88,0,0,1,.78.69,1.71,1.71,0,0,1,.28,1h-.83a1.16,1.16,0,0,0-.36-.9,1.8,1.8,0,0,0-2-.05.9.9,0,0,0-.35.75.79.79,0,0,0,.33.64,3.24,3.24,0,0,0,1.11.49,5.72,5.72,0,0,1,1.22.48,1.94,1.94,0,0,1,.65.62,1.6,1.6,0,0,1,.22.83,1.45,1.45,0,0,1-.6,1.22,2.49,2.49,0,0,1-1.59.46,2.84,2.84,0,0,1-1.2-.25,2.12,2.12,0,0,1-.87-.67,1.69,1.69,0,0,1-.3-1h.83a1.08,1.08,0,0,0,.42.9,1.78,1.78,0,0,0,1.12.33,1.64,1.64,0,0,0,1-.27.87.87,0,0,0,.34-.73.83.83,0,0,0-.32-.71A3.7,3.7,0,0,0,100.72,170.87Z" fill="#dadada"/><path d="M104.73,169l0,.51a1.72,1.72,0,0,1,1.38-.6,1.33,1.33,0,0,1,1.33.75,1.87,1.87,0,0,1,.61-.54,1.76,1.76,0,0,1,.88-.21q1.53,0,1.56,1.62v3.13h-.8v-3.08a1.06,1.06,0,0,0-.23-.74,1,1,0,0,0-.76-.25,1.08,1.08,0,0,0-.74.26,1.07,1.07,0,0,0-.34.71v3.1h-.8v-3.06a.89.89,0,0,0-1-1,1.06,1.06,0,0,0-1.07.67v3.4H104V169Z" fill="#dadada"/><path d="M114.58,173.67a2.13,2.13,0,0,1-.11-.49,1.79,1.79,0,0,1-1.33.57,1.67,1.67,0,0,1-1.13-.39,1.28,1.28,0,0,1-.44-1,1.33,1.33,0,0,1,.56-1.13,2.65,2.65,0,0,1,1.55-.4h.78v-.36a.94.94,0,0,0-.25-.67,1,1,0,0,0-.74-.25,1.18,1.18,0,0,0-.71.22.64.64,0,0,0-.29.52h-.8a1.05,1.05,0,0,1,.25-.67,1.62,1.62,0,0,1,.67-.52,2.18,2.18,0,0,1,.93-.19,1.87,1.87,0,0,1,1.26.4,1.47,1.47,0,0,1,.47,1.11v2.15a2.64,2.64,0,0,0,.17,1v.07Zm-1.32-.61a1.39,1.39,0,0,0,.71-.2,1.08,1.08,0,0,0,.49-.5v-1h-.63c-1,0-1.46.28-1.46.85a.72.72,0,0,0,.25.59A1,1,0,0,0,113.26,173.06Z" fill="#dadada"/><path d="M118.75,169.72a2.38,2.38,0,0,0-.39,0,1,1,0,0,0-1.06.67v3.31h-.8V169h.78v.54a1.23,1.23,0,0,1,1.11-.63.79.79,0,0,1,.35.06Z" fill="#dadada"/><path d="M120.78,167.88V169h.87v.61h-.87v2.9a.66.66,0,0,0,.12.42.49.49,0,0,0,.39.14,1.69,1.69,0,0,0,.38-.06v.65a2.62,2.62,0,0,1-.61.08,1,1,0,0,1-.8-.32,1.4,1.4,0,0,1-.28-.92v-2.89h-.84V169H120v-1.13Z" fill="#dadada"/></g></g></g></svg>