<svg xmlns="http://www.w3.org/2000/svg" viewBox="0 0 34.02 34.02"><g id="Capa_2" data-name="Capa 2"><g id="redes"><g id="ws"><path d="M8.23,31.59A16.89,16.89,0,0,0,17,34,17.1,17.1,0,0,0,34,17,17,17,0,1,0,2.43,25.79L0,34ZM2,17A14.94,14.94,0,1,1,8.91,29.67l-.38-.25L3,31.07l1.64-5.58-.24-.38A15,15,0,0,1,2,17Z" style="fill:#fff"/><path d="M8.28,13.87a15.43,15.43,0,0,0,4.15,7.9,15.39,15.39,0,0,0,7.9,4.15c2,.37,4.88.43,6.3-1l.79-.79a2.11,2.11,0,0,0,0-3L24.26,18a2.12,2.12,0,0,0-3,0l-.79.79a1.4,1.4,0,0,1-1.88,0l-3.15-3.29h0a1.26,1.26,0,0,1,0-1.76l.79-.79a2.11,2.11,0,0,0,0-3L13.05,6.77a2.12,2.12,0,0,0-3,0l-.79.8h0C8.13,8.7,7.76,11.11,8.28,13.87ZM10.67,9c.84-.81.79-.82.88-.82a.14.14,0,0,1,.09,0c3.33,3.36,3.2,3.16,3.2,3.25a.1.1,0,0,1,0,.09l-.79.79a3.24,3.24,0,0,0,0,4.57l3.16,3.29h0a3.38,3.38,0,0,0,4.7,0l.79-.79a.13.13,0,0,1,.18,0c3.33,3.35,3.2,3.16,3.2,3.25a.1.1,0,0,1,0,.09l-.79.79c-.54.54-2.27.87-4.52.44a13.45,13.45,0,0,1-6.86-3.6,13.3,13.3,0,0,1-3.6-6.86C9.81,11.24,10.13,9.52,10.67,9Z" style="fill:#fff"/></g></g></g></svg>